<svg width="28" height="28" viewBox="0 0 28 28" fill="none" xmlns="http://www.w3.org/2000/svg">
<g clip-path="url(#clip0_39_285)">
<path d="M18.6667 4.66663H9.33334C6.75601 4.66663 4.66667 6.75596 4.66667 9.33329V18.6666C4.66667 21.244 6.75601 23.3333 9.33334 23.3333H18.6667C21.244 23.3333 23.3333 21.244 23.3333 18.6666V9.33329C23.3333 6.75596 21.244 4.66663 18.6667 4.66663Z" stroke="#12CE31" stroke-width="2" stroke-linecap="round" stroke-linejoin="round"/>
<path d="M14 17.5C15.933 17.5 17.5 15.933 17.5 14C17.5 12.067 15.933 10.5 14 10.5C12.067 10.5 10.5 12.067 10.5 14C10.5 15.933 12.067 17.5 14 17.5Z" stroke="#12CE31" stroke-width="2" stroke-linecap="round" stroke-linejoin="round"/>
<path d="M19.25 8.75V8.751" stroke="#12CE31" stroke-width="2" stroke-linecap="round" stroke-linejoin="round"/>
</g>
<defs>
<clipPath id="clip0_39_285">
<rect width="28" height="28" fill="white"/>
</clipPath>
</defs>
</svg>
