<svg width="26" height="22" viewBox="0 0 26 22" fill="none" xmlns="http://www.w3.org/2000/svg">
<path d="M24.6667 1.67835C23.5 2.25002 22.3567 2.48218 21.1667 2.83335C19.8588 1.35752 17.9198 1.27585 16.0567 1.97352C14.1935 2.67118 12.9732 4.37685 13 6.33335V7.50002C9.21418 7.59685 5.84251 5.87252 3.66668 2.83335C3.66668 2.83335 -1.21232 11.5052 8.33334 15.6667C6.14934 17.1215 3.97118 18.1027 1.33334 18C5.19268 20.1035 9.39851 20.8268 13.0397 19.7698C17.2163 18.5565 20.6487 15.4263 21.9658 10.7375C22.3588 9.31146 22.5539 7.83819 22.5457 6.35902C22.5433 6.06852 24.3073 3.12502 24.6667 1.67718V1.67835Z" stroke="#12CE31" stroke-width="2" stroke-linecap="round" stroke-linejoin="round"/>
</svg>
